<?xml version="1.0" encoding="utf-8"?>
<!-- Generator: Adobe Illustrator 22.0.0, SVG Export Plug-In . SVG Version: 6.00 Build 0)  -->
<svg version="1.2" baseProfile="tiny" id="Layer_1" xmlns="http://www.w3.org/2000/svg" xmlns:xlink="http://www.w3.org/1999/xlink"
	 x="0px" y="0px" viewBox="0 0 641.5 543" xml:space="preserve">
<linearGradient id="SVGID_1_" gradientUnits="userSpaceOnUse" x1="66.232" y1="150.2375" x2="494.9647" y2="397.7665">
	<stop  offset="0.5135" style="stop-color:#424242"/>
	<stop  offset="1" style="stop-color:#686868"/>
</linearGradient>
<circle fill="url(#SVGID_1_)" cx="280.6" cy="274" r="247.5"/>
<linearGradient id="SVGID_2_" gradientUnits="userSpaceOnUse" x1="46.689" y1="274.002" x2="514.5077" y2="274.002">
	<stop  offset="0" style="stop-color:#315600"/>
	<stop  offset="1" style="stop-color:#7AC900"/>
</linearGradient>
<circle fill="url(#SVGID_2_)" cx="280.6" cy="274" r="233.9"/>
<linearGradient id="SVGID_3_" gradientUnits="userSpaceOnUse" x1="78.2256" y1="200.3444" x2="482.971" y2="347.6597">
	<stop  offset="0" style="stop-color:#E4E9EA"/>
	<stop  offset="0.6432" style="stop-color:#FFFFFF"/>
</linearGradient>
<circle fill="url(#SVGID_3_)" cx="280.6" cy="274" r="215.3"/>
<line fill="#191919" stroke="#3F3F3F" stroke-width="2" stroke-miterlimit="10" x1="152" y1="257.5" x2="421" y2="257.5"/>
<line fill="#3F3F3F" stroke="#3F3F3F" stroke-width="2" stroke-miterlimit="10" x1="152" y1="341.8" x2="421" y2="341.8"/>
<g>
	<path fill="#3F3F3F" d="M164.3,268.5h6.4v22h0.1c1-1.8,2.6-3.4,4.6-4.5c1.9-1.1,4.2-1.8,6.6-1.8c4.7,0,12.3,2.9,12.3,15.1v21H188
		V300c0-5.7-2.1-10.5-8.2-10.5c-4.2,0-7.4,2.9-8.6,6.4c-0.4,0.9-0.4,1.8-0.4,3.1v21.3h-6.4V268.5z"/>
	<path fill="#3F3F3F" d="M217.7,274.9V285h9.2v4.9h-9.2v19.1c0,4.4,1.2,6.9,4.8,6.9c1.7,0,2.9-0.2,3.7-0.4l0.3,4.8
		c-1.2,0.5-3.2,0.9-5.7,0.9c-3,0-5.4-0.9-6.9-2.7c-1.8-1.9-2.5-5-2.5-9.2v-19.3H206V285h5.5v-8.5L217.7,274.9z"/>
	<path fill="#3F3F3F" d="M247.3,274.9V285h9.2v4.9h-9.2v19.1c0,4.4,1.2,6.9,4.8,6.9c1.7,0,2.9-0.2,3.7-0.4l0.3,4.8
		c-1.2,0.5-3.2,0.9-5.7,0.9c-3,0-5.4-0.9-6.9-2.7c-1.8-1.9-2.5-5-2.5-9.2v-19.3h-5.5V285h5.5v-8.5L247.3,274.9z"/>
	<path fill="#3F3F3F" d="M269.1,296.5c0-4.5-0.1-8.2-0.3-11.5h5.8l0.3,6.1h0.1c2.6-4.3,6.8-6.9,12.6-6.9c8.5,0,15,7.2,15,18
		c0,12.7-7.7,19-16.1,19c-4.7,0-8.8-2-10.9-5.5h-0.1v19.2h-6.4V296.5z M275.5,306c0,0.9,0.1,1.8,0.3,2.6c1.2,4.5,5,7.5,9.6,7.5
		c6.8,0,10.7-5.5,10.7-13.7c0-7.1-3.7-13.1-10.5-13.1c-4.4,0-8.5,3.1-9.7,8c-0.2,0.8-0.4,1.8-0.4,2.6V306z"/>
	<path fill="#3F3F3F" d="M315.2,313.8c1.9,1.2,5.3,2.6,8.5,2.6c4.7,0,6.9-2.3,6.9-5.3c0-3.1-1.8-4.7-6.6-6.5
		c-6.4-2.3-9.3-5.8-9.3-10c0-5.7,4.6-10.4,12.2-10.4c3.6,0,6.7,1,8.7,2.2l-1.6,4.7c-1.4-0.9-3.9-2-7.2-2c-3.8,0-5.9,2.2-5.9,4.8
		c0,2.9,2.1,4.2,6.7,6c6.1,2.3,9.3,5.4,9.3,10.7c0,6.2-4.8,10.6-13.2,10.6c-3.9,0-7.4-0.9-9.9-2.4L315.2,313.8z"/>
	<path fill="#3F3F3F" d="M348.8,290.8c0-2.7,1.8-4.6,4.4-4.6s4.2,1.9,4.3,4.6c0,2.6-1.7,4.5-4.4,4.5
		C350.6,295.4,348.8,293.4,348.8,290.8z M348.8,316.6c0-2.7,1.8-4.6,4.4-4.6s4.2,1.9,4.3,4.6c0,2.6-1.7,4.5-4.4,4.5
		C350.6,321.1,348.8,319.2,348.8,316.6z"/>
	<path fill="#3F3F3F" d="M365.5,323.3l20.4-52.9h5l-20.4,52.9H365.5z"/>
	<path fill="#3F3F3F" d="M395.9,323.3l20.4-52.9h5l-20.4,52.9H395.9z"/>
</g>
<g>
	<path fill="#7AB200" stroke="#7AB200" stroke-width="8" stroke-miterlimit="10" d="M200.9,223.6c0,0-1.8-0.4-5.5-1.2
		c-3.7-0.8-7.1-2-10.3-3.5c-3.2-1.6-6.2-3.5-8.9-5.9l7.4-9.1c3.2,2.8,6.8,4.9,10.7,6.3c3.9,1.4,8.1,2.1,12.7,2.1
		c6.2,0,11-1.1,14.4-3.4s5.1-5.5,5.1-9.7v-0.1c0-3-0.8-5.3-2.3-7.1c-1.5-1.7-3.5-3-6-3.9c-2.4-0.8-5.6-1.6-9.5-2.3
		c-0.1,0-0.2-0.1-0.4-0.1c-0.1,0-0.3,0-0.4-0.1l-0.9-0.2c-5.7-1-10.3-2.1-13.9-3.3s-6.6-3.5-9.2-6.7c-2.5-3.3-3.8-7.9-3.8-13.9v-0.1
		c0-5.3,1.2-9.8,3.5-13.5c2.4-3.7,5.8-6.6,10.3-8.5c4.5-2,10-2.9,16.3-2.9c3,0,6,0.3,9,1c2.9,0.7,5.9,1.7,8.7,3c2.9,1.3,5.7,3,8.5,5
		l-6.8,9.5c-3.2-2.4-6.5-4.2-9.7-5.4c-3.2-1.2-6.5-1.8-9.7-1.8c-5.8,0-10.3,1.2-13.6,3.5c-3.2,2.3-4.8,5.6-4.8,9.9v0.1
		c0,2.9,0.8,5.2,2.5,6.9c1.7,1.7,3.7,2.9,6.2,3.7c2.5,0.8,5.9,1.6,10.3,2.5c0.2,0,0.3,0.1,0.4,0.1c0.1,0,0.3,0,0.4,0.1
		c0.2,0,0.4,0.1,0.6,0.1c0.2,0,0.4,0.1,0.6,0.1c5.2,1.1,9.5,2.3,12.9,3.8c3.5,1.4,6.3,3.8,8.7,7c2.3,3.2,3.5,7.6,3.5,13.2v0.1
		c0,5.2-1.2,9.6-3.7,13.3s-6,6.5-10.7,8.4c-4.7,1.9-10.3,2.9-16.9,2.9C203,223.6,200.9,223.6,200.9,223.6z"/>
	<path fill="#7AB200" stroke="#7AB200" stroke-width="8" stroke-miterlimit="10" d="M285.6,223.6c0,0-1.8-0.4-5.5-1.2
		c-3.7-0.8-7.1-2-10.3-3.5c-3.2-1.6-6.2-3.5-8.9-5.9l7.4-9.1c3.2,2.8,6.8,4.9,10.7,6.3c3.9,1.4,8.1,2.1,12.7,2.1
		c6.2,0,11-1.1,14.4-3.4s5.1-5.5,5.1-9.7v-0.1c0-3-0.8-5.3-2.3-7.1c-1.5-1.7-3.5-3-6-3.9c-2.4-0.8-5.6-1.6-9.5-2.3
		c-0.1,0-0.2-0.1-0.4-0.1c-0.1,0-0.3,0-0.4-0.1l-0.9-0.2c-5.7-1-10.3-2.1-13.9-3.3s-6.6-3.5-9.2-6.7c-2.5-3.3-3.8-7.9-3.8-13.9v-0.1
		c0-5.3,1.2-9.8,3.5-13.5c2.4-3.7,5.8-6.6,10.3-8.5c4.5-2,10-2.9,16.3-2.9c3,0,6,0.3,9,1c2.9,0.7,5.9,1.7,8.7,3c2.9,1.3,5.7,3,8.5,5
		l-6.8,9.5c-3.2-2.4-6.5-4.2-9.7-5.4c-3.2-1.2-6.5-1.8-9.7-1.8c-5.8,0-10.3,1.2-13.6,3.5c-3.2,2.3-4.8,5.6-4.8,9.9v0.1
		c0,2.9,0.8,5.2,2.5,6.9c1.7,1.7,3.7,2.9,6.2,3.7c2.5,0.8,5.9,1.6,10.3,2.5c0.2,0,0.3,0.1,0.4,0.1c0.1,0,0.3,0,0.4,0.1
		c0.2,0,0.4,0.1,0.6,0.1c0.2,0,0.4,0.1,0.6,0.1c5.2,1.1,9.5,2.3,12.9,3.8c3.5,1.4,6.3,3.8,8.7,7c2.3,3.2,3.5,7.6,3.5,13.2v0.1
		c0,5.2-1.2,9.6-3.7,13.3s-6,6.5-10.7,8.4c-4.7,1.9-10.3,2.9-16.9,2.9C287.7,223.6,285.6,223.6,285.6,223.6z"/>
	<path fill="#7AB200" stroke="#7AB200" stroke-width="8" stroke-miterlimit="10" d="M350.9,137.5h12v85.2h-12V137.5z M356.8,211.3
		h48.8v11.4h-48.8V211.3z"/>
</g>
<polygon fill="#4C4C4C" points="284.4,68.8 290.6,81.4 304.5,83.4 294.5,93.2 296.8,107 284.4,100.5 272,107 274.4,93.2 264.3,83.4 
	278.2,81.4 "/>
<polygon fill="#4C4C4C" points="239.1,75.5 243.9,85.2 254.6,86.8 246.8,94.3 248.7,105 239.1,100 229.5,105 231.3,94.3 223.6,86.8 
	234.3,85.2 "/>
<polygon fill="#4C4C4C" points="329.8,75.5 334.6,85.2 345.3,86.8 337.5,94.3 339.4,105 329.8,100 320.2,105 322,94.3 314.3,86.8 
	325,85.2 "/>
<g>
	<path fill="#62B01E" d="M479.1,316.2c-4.3,0-10.5-1.9-15.9-10.7c-0.2-0.3-0.3-0.5-0.4-0.8c-10.7-24.1-23.5-50.5-37.4-64.2
		c-0.7-0.7-1.3-1.5-1.8-2.4c-3.3-5.9-3.4-12.3-0.4-17.5c3.1-5.3,9-8.4,15.8-8.4c3,0,6.1,0.6,9.2,1.9c12.3,5,23.9,11.8,33.5,20
		c48.7-53.8,88.2-90,134-104.2c0.1,0,0.3-0.1,0.4-0.1c1.5-0.4,3-0.6,4.5-0.6c6,0,11.3,3.2,13.4,8.3c2,4.7,0.9,10-2.9,13.9
		c-0.3,0.3-0.6,0.5-0.9,0.8c0,0-0.1,0.1-0.2,0.1c-0.2,0.1-0.3,0.2-0.5,0.4c-65.3,41-100.2,94.6-135.9,155.5
		c-0.2,0.4-0.5,0.8-0.9,1.2C487.6,315,482.5,316.2,479.1,316.2C479.1,316.2,479.1,316.2,479.1,316.2z"/>
	<path fill="#FFFFFF" d="M620.6,136.2c6.2,0,9.9,5.8,5.5,10.4l-0.1,0.1c-65.3,40.9-100.8,94-138.3,157.9c-2.9,3.2-5.8,4.7-8.6,4.7
		c-3.6,0-7-2.6-9.9-7.3c-11-24.8-24.2-51.8-38.8-66.3c-0.2-0.2-0.4-0.5-0.6-0.8c-4.6-8.3,0.8-15.5,9.3-15.5c2,0,4.3,0.4,6.5,1.3
		c11.7,4.7,23.6,11.7,33.4,20.3c0.8,0.5,1.7,0.7,2.6,0.7c1.7,0,3.5-0.8,4.7-2.2c52.4-58,89.8-90,131.5-103l0,0
		C618.8,136.3,619.8,136.2,620.6,136.2 M626,146.6C626,146.6,626,146.6,626,146.6S626,146.6,626,146.6 M626,146.6
		C626,146.6,626,146.6,626,146.6C626,146.6,626,146.6,626,146.6 M626,146.6C626,146.6,626,146.6,626,146.6
		C626,146.6,626,146.6,626,146.6 M626,146.6C626,146.6,626,146.6,626,146.6C626,146.6,626,146.6,626,146.6 M626,146.6
		C626,146.6,626,146.6,626,146.6C626,146.6,626,146.6,626,146.6 M626,146.6C626,146.6,626,146.6,626,146.6
		C626,146.6,626,146.6,626,146.6 M626,146.6C626,146.6,626,146.6,626,146.6C626,146.6,626,146.6,626,146.6 M626,146.6
		C626,146.6,626,146.6,626,146.6C626,146.6,626,146.6,626,146.6 M626,146.6C626,146.6,626,146.6,626,146.6
		C626,146.6,626,146.6,626,146.6 M626,146.6C626,146.6,626,146.6,626,146.6C626,146.6,626,146.6,626,146.6 M626,146.6
		C626,146.6,626,146.6,626,146.6C626,146.6,626,146.6,626,146.6 M626,146.6C626,146.6,626,146.6,626,146.6
		C626,146.6,626,146.6,626,146.6 M626,146.6L626,146.6L626,146.6 M626,146.6C626,146.6,626,146.6,626,146.6
		C626,146.6,626,146.6,626,146.6 M626,146.6C626,146.6,626,146.6,626,146.6C626,146.6,626,146.6,626,146.6 M626,146.6
		C626,146.6,626,146.6,626,146.6C626,146.6,626,146.6,626,146.6 M626,146.6C626,146.6,626,146.6,626,146.6
		C626,146.6,626,146.6,626,146.6 M626,146.6C626,146.6,626,146.6,626,146.6C626,146.6,626,146.6,626,146.6 M620.7,122.2
		C620.7,122.2,620.6,122.2,620.7,122.2c-2.1,0-4.2,0.3-6.3,0.8c-0.2,0.1-0.5,0.1-0.7,0.2c-45.9,14.2-85.2,49.3-132.7,101.4
		c-9-6.8-19.3-12.6-30.1-16.9c-3.9-1.6-7.8-2.4-11.8-2.4c-9.3,0-17.4,4.4-21.8,11.9c-4.3,7.3-4.2,16.4,0.3,24.5c0.8,1.4,1.8,2.8,3,4
		c13.1,12.9,26.1,39.9,35.9,62c0.2,0.5,0.5,1.1,0.8,1.6c7.4,12.3,16.9,14.1,21.9,14.1c4.8,0,11.9-1.6,18.9-9.2
		c0.7-0.7,1.2-1.5,1.7-2.4c24.9-42.5,49.4-81.4,84.3-114.8c1.6-1,3-2.3,4.1-3.9c13.3-12.3,28.1-23.7,45-34.3c0,0,0,0,0,0
		c0.4-0.2,0.8-0.5,1.2-0.8c0.1,0,0.1-0.1,0.2-0.1c0.6-0.4,1.1-0.9,1.6-1.5c5.7-6,7.4-14.3,4.2-21.5
		C637.3,127.1,629.5,122.2,620.7,122.2L620.7,122.2z M626,160.6L626,160.6L626,160.6L626,160.6z"/>
</g>
<g>
	<linearGradient id="SVGID_4_" gradientUnits="userSpaceOnUse" x1="278.3249" y1="463.4618" x2="278.3249" y2="362.1641">
		<stop  offset="0.1297" style="stop-color:#315600"/>
		<stop  offset="0.7" style="stop-color:#77C400"/>
		<stop  offset="1" style="stop-color:#7AC900"/>
	</linearGradient>
	<path fill="url(#SVGID_4_)" d="M274.4,362.2c2.5,0,4.9,0,7.4,0c1.1,0.4,2.4,0.4,3.6,0.6c15.1,2.8,26.1,14.6,27.5,28.1
		c0.4,3.7,0.2,7.4,0.2,11.2c0,0.9,0.3,1.2,1.3,1.1c2.5-0.2,4.4,0.7,5.7,2.6c1,1.5,1.4,3.2,1.4,4.9c0,15.1,0,30.1,0,45.2
		c0,0.7-0.1,1.5-0.2,2.2c-0.6,3.3-3.1,5.5-6.3,5.5c-24.3,0-48.6,0-72.9,0c-2.1,0-3.6-0.8-4.8-2.2c-1.3-1.6-1.7-3.4-1.7-5.3
		c0-15.1,0-30.2,0-45.3c0-0.3,0-0.6,0-0.9c0.2-3.5,2.7-7.2,7.5-6.6c0.7,0.1,0.8-0.2,0.8-0.8c0-2.6,0-5.3,0-7.9
		c0-3.1,0.3-6.3,1.4-9.3c3.9-11.4,12.1-18.8,24.9-22.1C271.4,362.7,273,362.7,274.4,362.2z M278.3,403.1c6.5,0,12.9,0,19.4,0
		c0.4,0,1,0.2,0.9-0.6c-0.1-3.8,0.3-7.5-0.2-11.3c-1.2-8.8-9.9-15.9-19.6-16c-11.3-0.2-20.6,8.1-20.8,18.3c0,2.9,0,5.7,0,8.6
		c0,0.7,0.2,0.9,1,0.9C265.4,403.1,271.9,403.1,278.3,403.1z M271.4,440.5c0,2.1,0,4.2,0,6.3c0,2.2,1.4,3.4,3.7,3.4
		c1.9,0,3.9,0,5.8,0c3.2,0,4.4-1,4.4-3.9c0-4.1,0-8.2,0-12.3c0-0.6,0.2-1,0.6-1.4c1.8-2,2.5-4.2,2-6.7c-0.9-4.5-4.5-7.1-9.8-7.1
		c-3.9,0-6.7,1.6-8.3,4.8c-1.6,3.2-1.2,6.2,1.1,9c0.4,0.5,0.6,1,0.6,1.6C271.4,436.2,271.4,438.3,271.4,440.5z"/>
</g>
</svg>
